<svg width="346" height="43" xmlns="http://www.w3.org/2000/svg" xmlns:xlink="http://www.w3.org/1999/xlink"><defs><path d="M0 0h4.971v42.875H0V0zm12.925 0h4.972v42.875h-4.972V0zm16.903 31.922h4.97v11.054h-4.97V31.922zm14.913 0h4.972v11.054H44.74V31.922zm14.914 0h4.971v11.054h-4.97V31.922zM72.58 0h4.972v42.875H72.58V0zm14.914 14.291h4.972v28.584h-4.972V14.291zm16.903 13.938h4.97v14.735h-4.97V28.23zm14.913 0h4.972v14.735h-4.972V28.23zm12.926-11.026h4.97v25.672h-4.97V17.203zM147.149 0h4.972v42.875h-4.972V0zm14.914 0h4.971v42.875h-4.97V0zm14.914 0h4.971v42.875h-4.971V0zm14.914 0h4.971v42.875h-4.971V0zm16.902 39.573h4.971V43h-4.97v-3.427zm14.914-7.65h4.971v11.053h-4.971V31.922zm14.914 0h4.971v11.053h-4.971V31.922zM251.546 0h4.971v42.875h-4.971V0zm16.902 39.573h4.972V43h-4.972v-3.427zm14.914 0h4.971V43h-4.97v-3.427zm14.914 0h4.971V43h-4.971v-3.427zm14.914 0h4.97V43h-4.97v-3.427zm12.925-11.52h4.971v14.822h-4.971V28.054zm14.914-8.468H346v23.29h-4.971v-23.29z" id="a"/></defs><g fill="none" fill-rule="evenodd"><mask id="b" fill="#fff"><use xlink:href="#a"/></mask><use fill="#C6D6DB" fill-rule="nonzero" xlink:href="#a"/><g mask="url(#b)"><path fill="#375DD5" d="M-1 0h347v43H-1z"/><path fill="#687089" d="M-1 0h347v43H-1z"/></g></g></svg>