<?xml version="1.0" encoding="iso-8859-1"?>
<!DOCTYPE svg PUBLIC "-//W3C//DTD SVG 1.1//EN" "http://www.w3.org/Graphics/SVG/1.1/DTD/svg11.dtd">
<svg 
 version="1.1" xmlns="http://www.w3.org/2000/svg" xmlns:xlink="http://www.w3.org/1999/xlink" x="0px" y="0px" width="512px"
	 height="512px" viewBox="0 0 512 512" style="enable-background:new 0 0 512 512;" xml:space="preserve"
><g id="afcae5a789ccd549f9c6e2a2f817846f"><g></g><g fill="#000000"><path style="display: inline;" d="M147.191,511.5H94.329V211.948h52.862V511.5z M122.303,0.5c-42.94,0-77.752,43.391-77.752,96.914
		c0,53.522,34.812,96.914,77.752,96.914c42.939,0,77.751-43.391,77.751-96.914C200.054,43.891,165.242,0.5,122.303,0.5z
		 M326.484,211.948h-52.862V511.5h52.862V211.948z M343.664,0.5v158.586h-34.801V0.5h-18.062v158.586h-34.803V0.5h-18.061v158.586
		v35.241h123.787v-35.241V0.5H343.664z M432.208,0.5c-19.465,0-35.241,15.776-35.241,35.241v211.448h17.621V511.5h52.861V35.741
		C467.449,16.276,451.67,0.5,432.208,0.5z"></path></g></g></svg>